<svg width="110" height="96" viewBox="0 0 110 96" fill="none" xmlns="http://www.w3.org/2000/svg">
<path d="M45.0749 46.9456C47.4596 48.8497 49.9088 50.8356 52.5298 52.9853C53.7329 53.9885 55.5376 53.9885 56.7407 52.9853C59.3617 50.8356 61.8109 48.8497 64.1957 46.9456C68.5139 43.4651 72.2522 40.476 75.4533 37.5483C81.297 32.2457 86.6895 26.1855 86.6895 17.9552C86.6895 8.16891 79.3419 0 69.051 0C62.9281 0 58.0297 3.03007 54.6353 7.90275C51.2623 3.03007 46.3639 0 40.2409 0C29.9286 0 22.6025 8.18938 22.6025 17.9757C22.6025 23.135 24.6865 27.8848 29.1767 32.9213C33.0653 37.2822 38.6296 41.7658 45.0749 46.9456ZM40.2409 6.14203C43.6354 6.14203 46.5143 7.65707 48.8346 10.6667C50.7466 13.1644 51.5416 15.7646 51.5416 15.785C51.9283 17.1158 53.1958 18.0371 54.6353 18.0371C56.0747 18.0371 57.3422 17.1158 57.729 15.785C57.729 15.7646 58.5239 13.1644 60.4359 10.6667C62.7347 7.65707 65.6351 6.14203 69.0296 6.14203C75.4103 6.14203 80.2228 11.2399 80.2228 17.9757C80.2228 22.8279 77.6232 27.0659 70.9846 33.126C67.9339 35.9104 64.2601 38.8586 60.0277 42.2572C58.2875 43.6699 56.4829 45.103 54.6353 46.618C52.7661 45.103 50.983 43.6494 49.2428 42.2572C36.6531 32.1228 29.0478 26.0013 29.0478 17.9757C29.0478 11.2399 33.8602 6.14203 40.2409 6.14203Z" fill="#57DBAC"/>
<path d="M108.602 65.8222C105.873 61.5023 100.116 60.0077 95.4751 62.4031L76.784 72.0461C74.6786 65.9041 68.5986 61.4408 61.4659 61.4408H49.3274L37.1244 55.6264C31.2163 52.8011 24.2125 53.3538 18.8415 57.08C15.9626 59.0455 11.4725 61.4204 6.42373 61.4204H3.22261C1.43943 61.4204 0 62.7921 0 64.4914V89.0595C0 90.7588 1.43943 92.1305 3.22261 92.1305H28.9605L48.3606 95.2016C51.7121 95.7339 55.0636 96 58.4151 96C69.7157 96 80.8445 93.0314 90.5768 87.2988L105.336 78.6385C109.891 75.9565 111.373 70.2035 108.602 65.8222ZM6.44522 67.5624C8.63659 67.5624 10.8709 67.2348 13.1053 66.6002V85.9885H6.44522V67.5624ZM101.942 73.4178L87.1823 82.0781C75.9031 88.7115 62.4756 91.2297 49.4133 89.1414C28.1871 85.7838 29.605 85.9885 29.2183 85.9885H19.5505V63.9386C20.5817 63.3653 21.613 62.7307 22.6227 62.0346C26.0172 59.6801 30.4644 59.3321 34.2241 61.1133L47.1145 67.2553C47.5657 67.46 48.0598 67.5829 48.554 67.5829H61.4444C65.6553 67.5829 69.2216 70.1421 70.5536 73.7249H48.554C46.7708 73.7249 45.3313 75.0966 45.3313 76.7959C45.3313 78.4952 46.7708 79.826 48.554 79.826H74.2704C74.8504 79.8465 75.409 79.7441 75.9246 79.478L98.5259 67.8286C100.137 67.0096 102.135 67.5215 103.059 69.016C104.026 70.5106 103.532 72.4965 101.942 73.4178Z" fill="#57DBAC"/>
</svg>
