<svg width="29" height="42" viewBox="0 0 29 42" fill="none" xmlns="http://www.w3.org/2000/svg">
<g filter="url(#filter0_d)">
<path d="M11.2154 32.6608C1.75586 18.9473 0 17.5399 0 12.5C0 5.59642 5.59642 0 12.5 0C19.4036 0 25 5.59642 25 12.5C25 17.5399 23.2441 18.9473 13.7846 32.6608C13.1639 33.5576 11.8361 33.5575 11.2154 32.6608ZM12.5 17.7083C15.3765 17.7083 17.7083 15.3765 17.7083 12.5C17.7083 9.6235 15.3765 7.29167 12.5 7.29167C9.6235 7.29167 7.29167 9.6235 7.29167 12.5C7.29167 15.3765 9.6235 17.7083 12.5 17.7083Z" fill="#5790FF"/>
</g>
<defs>
<filter id="filter0_d" x="-4" y="0" width="33" height="41.3333" filterUnits="userSpaceOnUse" color-interpolation-filters="sRGB">
<feFlood flood-opacity="0" result="BackgroundImageFix"/>
<feColorMatrix in="SourceAlpha" type="matrix" values="0 0 0 0 0 0 0 0 0 0 0 0 0 0 0 0 0 0 127 0"/>
<feOffset dy="4"/>
<feGaussianBlur stdDeviation="2"/>
<feColorMatrix type="matrix" values="0 0 0 0 0 0 0 0 0 0 0 0 0 0 0 0 0 0 0.25 0"/>
<feBlend mode="normal" in2="BackgroundImageFix" result="effect1_dropShadow"/>
<feBlend mode="normal" in="SourceGraphic" in2="effect1_dropShadow" result="shape"/>
</filter>
</defs>
</svg>
