<svg width="54" height="43" viewBox="0 0 54 43" fill="none" xmlns="http://www.w3.org/2000/svg">
<path d="M44.1562 34.4062C44.9062 34.4062 45.2812 34.7812 45.2812 35.5312C45.2812 36.2188 44.9062 36.5625 44.1562 36.5625C43.4688 36.5625 43.125 36.2188 43.125 35.5312C43.125 34.7812 43.4688 34.4062 44.1562 34.4062ZM16.125 34.4062C16.8125 34.4062 17.1562 34.7812 17.1562 35.5312C17.1562 36.2188 16.8125 36.5625 16.125 36.5625C15.4375 36.5625 15.0938 36.2188 15.0938 35.5312C15.0938 34.7812 15.4375 34.4062 16.125 34.4062ZM26.25 35.1562C26.3125 34.5938 26.5938 34.3125 27.0938 34.3125C27.6562 34.3125 27.9688 34.5938 28.0312 35.1562H26.25ZM37.2188 34.4062C37.9688 34.4062 38.3438 34.7812 38.3438 35.5312C38.3438 36.2188 37.9688 36.5625 37.2188 36.5625C36.5312 36.5625 36.1875 36.2188 36.1875 35.5312C36.1875 34.7812 36.5312 34.4062 37.2188 34.4062ZM47.1562 36.8438C47.2188 36.8438 47.25 36.875 47.25 36.9375C47.25 36.9375 47.2188 36.9688 47.1562 37.0312C47.1562 37.0938 47.1562 37.125 47.1562 37.125C47.0938 37.125 47.0625 37.125 47.0625 37.125C47 37.125 46.9688 37.125 46.9688 37.125C46.9062 37.125 46.875 37.125 46.875 37.125C46.8125 37.125 46.7812 37.125 46.7812 37.125C46.7188 37.0625 46.6875 37.0312 46.6875 37.0312C46.6875 36.9688 46.6875 36.9375 46.6875 36.9375C46.6875 36.875 46.6875 36.8438 46.6875 36.8438C46.6875 36.7812 46.7188 36.75 46.7812 36.75C46.7812 36.6875 46.7812 36.6562 46.7812 36.6562H46.875C46.875 36.6562 46.9062 36.6562 46.9688 36.6562C46.9688 36.6562 47 36.6562 47.0625 36.6562C47.125 36.7188 47.1562 36.75 47.1562 36.75C47.1562 36.75 47.1562 36.7812 47.1562 36.8438ZM46.9688 36.9375C46.9688 36.9375 47 36.9375 47.0625 36.9375C47.0625 36.9375 47.0625 36.9062 47.0625 36.8438C47.0625 36.7812 47.0625 36.75 47.0625 36.75C47.0625 36.75 47.0312 36.75 46.9688 36.75H46.7812V37.0312H46.875V36.9375L46.9688 37.0312H47.0625L46.9688 36.9375ZM54 4.59375V37.5938C54 38.8438 53.5625 39.9062 52.6875 40.7812C51.8125 41.6562 50.75 42.0938 49.5 42.0938H4.5C3.25 42.0938 2.1875 41.6562 1.3125 40.7812C0.4375 39.9062 0 38.8438 0 37.5938V4.59375C0 3.34375 0.4375 2.28125 1.3125 1.40625C2.1875 0.53125 3.25 0.09375 4.5 0.09375H49.5C50.75 0.09375 51.8125 0.53125 52.6875 1.40625C53.5625 2.28125 54 3.34375 54 4.59375ZM9.75 8.53125C7.25 11.0312 6 14.0938 6 17.7188C6 21.2812 7.25 24.3438 9.75 26.9062C12.3125 29.4062 15.375 30.6562 18.9375 30.6562C21.5625 30.6562 23.9688 29.9375 26.1562 28.5C22.7188 25.6875 21 22.0938 21 17.7188C21.0625 13.2812 22.7812 9.6875 26.1562 6.9375C23.9688 5.4375 21.5625 4.6875 18.9375 4.6875C15.375 4.6875 12.3125 5.96875 9.75 8.53125ZM27 27.8438C30.3125 25.2812 31.9688 21.9062 31.9688 17.7188C31.9688 13.4688 30.3125 10.0625 27 7.5C23.6875 10.0625 22.0312 13.4688 22.0312 17.7188C22.0312 21.9062 23.6875 25.2812 27 27.8438ZM13.6875 35.0625C13.6875 34.125 13.2188 33.6562 12.2812 33.6562C11.7188 33.6562 11.3125 33.875 11.0625 34.3125C10.8125 33.875 10.4375 33.6562 9.9375 33.6562C9.5 33.6562 9.15625 33.8125 8.90625 34.125V33.75H8.15625V37.2188H8.90625C8.90625 37.0312 8.90625 36.8125 8.90625 36.5625C8.90625 36.25 8.90625 36.0312 8.90625 35.9062C8.90625 35.7188 8.90625 35.5312 8.90625 35.3438C8.90625 35.1562 8.9375 35.0312 9 34.9688C9.0625 34.8438 9.125 34.75 9.1875 34.6875C9.25 34.5625 9.3125 34.4688 9.375 34.4062C9.5 34.3438 9.625 34.3125 9.75 34.3125C10.125 34.3125 10.3438 34.4688 10.4062 34.7812C10.5312 35.0938 10.5938 35.625 10.5938 36.375C10.5938 36.75 10.5938 37.0312 10.5938 37.2188H11.25C11.25 37.0312 11.25 36.8125 11.25 36.5625C11.25 36.25 11.25 36.0312 11.25 35.9062C11.25 35.7188 11.25 35.5312 11.25 35.3438C11.3125 35.1562 11.3438 35.0312 11.3438 34.9688C11.4062 34.8438 11.4688 34.75 11.5312 34.6875C11.5938 34.5625 11.6562 34.4688 11.7188 34.4062C11.8438 34.3438 12 34.3125 12.1875 34.3125C12.5 34.3125 12.6875 34.4688 12.75 34.7812C12.875 35.0938 12.9375 35.625 12.9375 36.375C12.9375 36.75 12.9375 37.0312 12.9375 37.2188H13.6875V35.0625ZM17.9062 33.75H17.1562V34.125C16.8438 33.8125 16.4688 33.6562 16.0312 33.6562C15.5312 33.6562 15.125 33.8438 14.8125 34.2188C14.5 34.5312 14.3438 34.9688 14.3438 35.5312C14.3438 36.0312 14.5 36.4688 14.8125 36.8438C15.125 37.1562 15.5312 37.3125 16.0312 37.3125C16.5312 37.3125 16.9062 37.125 17.1562 36.75V37.2188H17.9062V33.75ZM21.6562 36.1875C21.6562 35.625 21.2812 35.2812 20.5312 35.1562C19.8438 35.0312 19.5 34.875 19.5 34.6875C19.5 34.4375 19.7188 34.3125 20.1562 34.3125C20.5938 34.3125 20.9688 34.4062 21.2812 34.5938L21.5625 34.0312C21.125 33.6562 20.5312 33.5312 19.7812 33.6562C19.0938 33.7812 18.75 34.1562 18.75 34.7812C18.75 35.2812 19.0938 35.625 19.7812 35.8125C20.5312 35.9375 20.9062 36.0625 20.9062 36.1875C20.9062 36.5 20.6562 36.6562 20.1562 36.6562C19.6562 36.6562 19.25 36.5312 18.9375 36.2812L18.5625 36.8438C19.125 37.2188 19.7812 37.3438 20.5312 37.2188C21.2812 37.0938 21.6562 36.75 21.6562 36.1875ZM24.9375 37.0312L24.75 36.375C24 36.8125 23.625 36.6875 23.625 36V34.4062H24.8438V33.75H23.625V32.7188H22.875V33.75H22.125V34.4062H22.875V36C22.875 36.75 23.1562 37.1875 23.7188 37.3125C24.3438 37.375 24.75 37.2812 24.9375 37.0312ZM26.25 35.8125H28.7812C28.7812 34.375 28.25 33.6562 27.1875 33.6562C26.6875 33.6562 26.2812 33.8438 25.9688 34.2188C25.6562 34.5312 25.5 34.9375 25.5 35.4375C25.5 36.375 25.875 36.9688 26.625 37.2188C27.4375 37.4688 28.125 37.3125 28.6875 36.75L28.3125 36.1875C27.9375 36.5625 27.5 36.7188 27 36.6562C26.5625 36.5312 26.3125 36.25 26.25 35.8125ZM31.7812 33.75C31.1562 33.5 30.6875 33.625 30.375 34.125V33.75H29.625V37.2188H30.375V35.25C30.375 34.75 30.5312 34.4688 30.8438 34.4062C31.1562 34.2812 31.375 34.3125 31.5 34.5L31.7812 33.75ZM33.375 36.5625C33 36.375 32.8125 36.0312 32.8125 35.5312C32.8125 34.9688 33 34.625 33.375 34.5C33.8125 34.3125 34.25 34.375 34.6875 34.6875L35.0625 34.0312C34.5 33.5938 33.8438 33.5312 33.0938 33.8438C32.3438 34.0938 31.9688 34.625 31.9688 35.4375C31.9688 36.3125 32.3438 36.9062 33.0938 37.2188C33.9062 37.4688 34.5625 37.3438 35.0625 36.8438L34.6875 36.2812C34.25 36.5938 33.8125 36.6875 33.375 36.5625ZM39 33.75H38.25V34.125C37.875 33.625 37.3125 33.5312 36.5625 33.8438C35.8125 34.0938 35.4375 34.625 35.4375 35.4375C35.4375 36.3125 35.8125 36.9062 36.5625 37.2188C37.3125 37.4688 37.875 37.3125 38.25 36.75V37.2188H39V33.75ZM42.1875 33.75C41.5625 33.4375 41.0938 33.5625 40.7812 34.125V33.75H40.0312V37.2188H40.7812V35.25C40.7812 34.8125 40.9375 34.5312 41.25 34.4062C41.5625 34.2812 41.8125 34.3125 42 34.5L42.1875 33.75ZM45.9375 32.3438H45.1875V34.125C44.8125 33.625 44.25 33.5312 43.5 33.8438C42.75 34.0938 42.375 34.6562 42.375 35.5312C42.375 36.3438 42.75 36.9062 43.5 37.2188C44.3125 37.4688 44.875 37.3125 45.1875 36.75V37.2188H45.9375V32.3438ZM46.6875 25.3125V25.7812H46.7812V25.3125H46.875V25.2188H46.5V25.3125H46.6875ZM47.25 36.9375C47.25 36.875 47.25 36.8125 47.25 36.75C47.1875 36.6875 47.1562 36.6562 47.1562 36.6562C47.0938 36.5938 47.0625 36.5625 47.0625 36.5625C47.0625 36.5625 47.0312 36.5625 46.9688 36.5625C46.9062 36.5625 46.875 36.5625 46.875 36.5625C46.875 36.5625 46.8438 36.5625 46.7812 36.5625C46.7188 36.625 46.6875 36.6562 46.6875 36.6562C46.625 36.7188 46.5938 36.75 46.5938 36.75C46.5938 36.8125 46.5938 36.875 46.5938 36.9375C46.5938 37 46.5938 37.0312 46.5938 37.0312C46.5938 37.0938 46.625 37.125 46.6875 37.125C46.75 37.1875 46.7812 37.2188 46.7812 37.2188C46.8438 37.2188 46.9062 37.2188 46.9688 37.2188C47.0312 37.2188 47.0625 37.2188 47.0625 37.2188C47.125 37.1562 47.1562 37.125 47.1562 37.125C47.2188 37.0625 47.25 37.0312 47.25 37.0312C47.25 37.0312 47.25 37 47.25 36.9375ZM47.625 25.2188H47.4375L47.3438 25.5938L47.1562 25.2188H47.0625V25.6875V25.3125L47.25 25.6875H47.3438L47.4375 25.3125V25.6875H47.625V25.2188ZM48 17.7188C48 14.0938 46.7188 11.0312 44.1562 8.53125C41.6562 5.96875 38.625 4.6875 35.0625 4.6875C32.4375 4.6875 30.0312 5.40625 27.8438 6.84375C31.2188 9.65625 32.9062 13.2812 32.9062 17.7188C32.9688 22.0938 31.2812 25.6875 27.8438 28.5C30.0312 29.9375 32.4375 30.6562 35.0625 30.6562C38.625 30.6562 41.6562 29.4062 44.1562 26.9062C46.7188 24.3438 48 21.2812 48 17.7188Z" fill="#1A224D"/>
</svg>
