<svg width="54" height="42" viewBox="0 0 54 42" fill="none" xmlns="http://www.w3.org/2000/svg">
<path d="M17.4375 21.1875C17.4375 21.75 17.25 22.25 16.875 22.6875C16.5 23.0625 16 23.25 15.375 23.25C14.375 23.25 13.875 22.7812 13.875 21.8438C13.875 21.2812 14.0625 20.8125 14.4375 20.4375C14.875 20 15.375 19.7812 15.9375 19.7812C16.9375 19.7812 17.4375 20.25 17.4375 21.1875ZM7.5 16.6875C8.1875 16.6875 8.65625 16.7812 8.90625 16.9688C9.21875 17.0938 9.3125 17.4688 9.1875 18.0938C9.0625 18.9688 8.375 19.4062 7.125 19.4062H6.375L6.84375 16.875C6.84375 16.75 6.9375 16.6875 7.125 16.6875H7.5ZM34.125 16.6875C35.25 16.6875 35.8438 17.0312 35.9062 17.7188C35.9062 18.8438 35.2188 19.4062 33.8438 19.4062H33.0938L33.4688 16.875C33.4688 16.75 33.5625 16.6875 33.75 16.6875H34.125ZM54 4.5V37.5C54 38.75 53.5625 39.8125 52.6875 40.6875C51.8125 41.5625 50.75 42 49.5 42H4.5C3.25 42 2.1875 41.5625 1.3125 40.6875C0.4375 39.8125 0 38.75 0 37.5V4.5C0 3.25 0.4375 2.1875 1.3125 1.3125C2.1875 0.4375 3.25 0 4.5 0H49.5C50.75 0 51.8125 0.4375 52.6875 1.3125C53.5625 2.1875 54 3.25 54 4.5ZM12 17.1562C12 15.4062 10.9375 14.5312 8.8125 14.5312H5.0625C4.75 14.5312 4.5625 14.6875 4.5 15L3 24.5625C2.9375 24.8125 3.03125 24.9375 3.28125 24.9375H5.0625C5.375 24.9375 5.5625 24.75 5.625 24.375L6 21.9375C6 21.8125 6.03125 21.7188 6.09375 21.6562C6.21875 21.5312 6.34375 21.4688 6.46875 21.4688C6.65625 21.4688 6.8125 21.4688 6.9375 21.4688C7.0625 21.4688 7.1875 21.4688 7.3125 21.4688C7.5 21.4688 7.625 21.4688 7.6875 21.4688C9.0625 21.4688 10.125 21.0938 10.875 20.3438C11.625 19.5938 12 18.5312 12 17.1562ZM19.875 18H18.1875C17.9375 18 17.7812 18.25 17.7188 18.75C17.2812 18.125 16.5625 17.8125 15.5625 17.8125C14.4375 17.8125 13.4688 18.25 12.6562 19.125C11.8438 19.9375 11.4375 20.9375 11.4375 22.125C11.4375 23 11.7188 23.7188 12.2812 24.2812C12.8438 24.8438 13.5625 25.125 14.4375 25.125C15.4375 25.125 16.2812 24.75 16.9688 24C16.9062 24.1875 16.875 24.375 16.875 24.5625C16.875 24.8125 16.9688 24.9375 17.1562 24.9375H18.75C19 24.9375 19.1875 24.75 19.3125 24.375L20.25 18.375C20.25 18.125 20.125 18 19.875 18ZM23.7188 27.1875L29.7188 18.5625C29.7188 18.5 29.7188 18.4375 29.7188 18.375C29.7188 18.125 29.625 18 29.4375 18H27.6562C27.4688 18 27.3125 18.0938 27.1875 18.2812L24.75 21.9375L23.7188 18.375C23.5938 18.125 23.4062 18 23.1562 18H21.4688C21.2188 18 21.0938 18.125 21.0938 18.375C21.0938 18.375 21.25 18.8438 21.5625 19.7812C21.875 20.6562 22.1875 21.5938 22.5 22.5938C22.875 23.5312 23.0938 24.0625 23.1562 24.1875C21.8438 26 21.1875 27 21.1875 27.1875C21.1875 27.375 21.2812 27.4688 21.4688 27.4688H23.25C23.4375 27.4688 23.5938 27.375 23.7188 27.1875ZM38.625 17.1562C38.625 15.4062 37.5625 14.5312 35.4375 14.5312H31.6875C31.375 14.5312 31.1875 14.6875 31.125 15L29.625 24.5625C29.625 24.8125 29.7188 24.9375 29.9062 24.9375H31.875C32.0625 24.9375 32.1875 24.8438 32.25 24.6562L32.625 21.9375C32.6875 21.8125 32.75 21.7188 32.8125 21.6562C32.9375 21.5312 33.0625 21.4688 33.1875 21.4688C33.3125 21.4688 33.4375 21.4688 33.5625 21.4688C33.6875 21.4688 33.8438 21.4688 34.0312 21.4688C34.2188 21.4688 34.3125 21.4688 34.3125 21.4688C35.6875 21.4688 36.75 21.0938 37.5 20.3438C38.25 19.5938 38.625 18.5312 38.625 17.1562ZM46.5 18H44.8125C44.5625 18 44.4062 18.25 44.3438 18.75C43.9688 18.125 43.25 17.8125 42.1875 17.8125C41 17.8125 40 18.25 39.1875 19.125C38.4375 19.9375 38.0625 20.9375 38.0625 22.125C38.0625 23 38.3125 23.7188 38.8125 24.2812C39.375 24.8438 40.125 25.125 41.0625 25.125C42.0625 25.125 42.875 24.75 43.5 24C43.5 24.3125 43.5 24.5 43.5 24.5625C43.5 24.8125 43.5938 24.9375 43.7812 24.9375H45.375C45.625 24.9375 45.8125 24.75 45.9375 24.375L46.875 18.375C46.875 18.125 46.75 18 46.5 18ZM51 14.9062C51 14.6562 50.9062 14.5312 50.7188 14.5312H48.9375C48.75 14.5312 48.6562 14.625 48.6562 14.8125L47.1562 24.5625V24.6562C47.1562 24.8438 47.25 24.9375 47.4375 24.9375H49.0312C49.2812 24.9375 49.4375 24.75 49.5 24.375L51 14.9062ZM42.5625 19.7812C43.5625 19.7812 44.0625 20.25 44.0625 21.1875C44.0625 21.75 43.875 22.25 43.5 22.6875C43.125 23.0625 42.625 23.25 42 23.25C41 23.25 40.5 22.7812 40.5 21.8438C40.5 21.2188 40.6875 20.7188 41.0625 20.3438C41.5 19.9688 42 19.7812 42.5625 19.7812Z" fill="#1A224D"/>
</svg>
