<svg width="54" height="42" viewBox="0 0 54 42" fill="none" xmlns="http://www.w3.org/2000/svg">
<path d="M44.0625 18.6562C44.5625 21.0312 44.8438 22.4375 44.9062 22.875H41.8125L43.3125 18.8438C43.3125 18.8438 43.3438 18.7812 43.4062 18.6562C43.4688 18.4688 43.5312 18.25 43.5938 18C43.6562 17.75 43.7188 17.5625 43.7812 17.4375L44.0625 18.6562ZM54 4.5V37.5C54 38.75 53.5625 39.8125 52.6875 40.6875C51.8125 41.5625 50.75 42 49.5 42H4.5C3.25 42 2.1875 41.5625 1.3125 40.6875C0.4375 39.8125 0 38.75 0 37.5V4.5C0 3.25 0.4375 2.1875 1.3125 1.3125C2.1875 0.4375 3.25 0 4.5 0H49.5C50.75 0 51.8125 0.4375 52.6875 1.3125C53.5625 2.1875 54 3.25 54 4.5ZM14.25 28.0312L20.25 13.5H16.2188L12.5625 23.4375L12.1875 21.375L10.875 14.7188C10.6875 13.9688 10.0938 13.5625 9.09375 13.5H3.09375L3 13.7812C4.4375 14.1562 5.75 14.6875 6.9375 15.375L10.3125 28.0312H14.25ZM23.1562 28.0312L25.5 13.5H21.75L19.4062 28.0312H23.1562ZM36.2812 23.3438C36.2812 21.7188 35.2188 20.375 33.0938 19.3125C31.6562 18.625 30.9375 18.0312 30.9375 17.5312C31 16.7188 31.75 16.3125 33.1875 16.3125C34.125 16.25 35.0312 16.4375 35.9062 16.875L36.2812 16.9688L36.75 13.875C35.75 13.4375 34.625 13.2188 33.375 13.2188C32.1875 13.2188 31.0938 13.4375 30.0938 13.875C29.1562 14.25 28.4062 14.8125 27.8438 15.5625C27.3438 16.3125 27.0938 17.125 27.0938 18C27.0312 19.5625 28.125 20.9062 30.375 22.0312C31.6875 22.6562 32.3438 23.25 32.3438 23.8125C32.2812 24.75 31.5312 25.2188 30.0938 25.2188C28.9062 25.2188 27.7188 24.9688 26.5312 24.4688L26.0625 24.1875L25.5 27.4688C26.5625 27.9688 27.9688 28.25 29.7188 28.3125C31.6562 28.3125 33.2188 27.875 34.4062 27C35.6562 26.0625 36.2812 24.8438 36.2812 23.3438ZM49.5 28.0312L46.5 13.5H43.5C42.5625 13.5 41.9375 13.9062 41.625 14.7188L36 28.0312H39.9375C40.375 26.8438 40.625 26.125 40.6875 25.875H45.5625L46.0312 28.0312H49.5Z" fill="#1A224D"/>
</svg>
